<?xml version="1.0" standalone="no"?>
<svg class="ngx-charts" fill="white" width="1288" height="725" xmlns="http://www.w3.org/2000/svg"><!----><g class="graph chart ng-tns-c8-11 ng-star-inserted" transform="matrix(0.7290000000000001,0,0,0.7290000000000001,3,129)" style=""><defs class="ng-tns-c8-11"><!----><!----><marker _ngcontent-c4="" id="arrow" markerHeight="4" markerWidth="4" orient="auto" refX="8" refY="0" style="fill: #535c68;" viewBox="0 -5 10 10" class="ng-star-inserted"><path _ngcontent-c4="" class="arrow-head" d="M0,-5L10,0L0,5"></path></marker><!----><!----><path class="text-path ng-tns-c8-11 ng-star-inserted" d="M364.05234375,70C434.77968749999997,52.5,505.50703125,35,576.234375,35C652.7135416666666,35,729.1927083333334,35,805.671875,35" id="ahuhx" style=""></path><path class="text-path ng-tns-c8-11 ng-star-inserted" d="M364.05234375,100C434.77968749999997,117.5,505.50703125,135,576.234375,135C630.2265625,135,684.21875,135,738.2109375,135" id="aqtjw" style=""></path><path class="text-path ng-tns-c8-11 ng-star-inserted" d="M1252.1171875,135C1306.109375,135,1360.1015625,135,1414.09375,135C1430.7604166666667,135,1447.4270833333333,135,1464.09375,135" id="adyzz" style=""></path><path class="text-path ng-tns-c8-11 ng-star-inserted" d="M364.05234375,270C434.77968749999997,252.5,505.50703125,235,576.234375,235C671.3932291666666,235,766.5520833333334,235,861.7109375,235" id="aww4v" style=""></path><path class="text-path ng-tns-c8-11 ng-star-inserted" d="M364.05234375,300C434.77968749999997,317.5,505.50703125,335,576.234375,335C672.921875,335,769.609375,335,866.296875,335" id="a40ly" style=""></path><path class="text-path ng-tns-c8-11 ng-star-inserted" d="M389.375,465C451.6614583333333,465,513.9479166666666,465,576.234375,465C592.9010416666666,465,609.5677083333334,465,626.234375,465" id="atqnn" style=""></path><path class="text-path ng-tns-c8-11 ng-star-inserted" d="M1043.5021033653845,450C1167.0326522435896,392.5,1290.563201121795,335,1414.09375,335C1441.171875,335,1468.25,335,1495.328125,335" id="apcxi" style=""></path><path class="text-path ng-tns-c8-11 ng-star-inserted" d="M1120.84296875,480C1218.5932291666666,497.5,1316.3434895833334,515,1414.09375,515C1448.8359375,515,1483.578125,515,1518.3203125,515" id="aj78d" style=""></path></defs><rect class="panning-rect" width="128800" height="72500" transform="translate(-64400,-36250)"></rect><g class="links"><!----><g class="link-group ng-tns-c8-11 ng-star-inserted" id="ahuhx" style=""><!----><!----><g _ngcontent-c4="" class="edge ng-star-inserted"><path _ngcontent-c4="" class="line" marker-end="url(#arrow)" stroke="#535c68" stroke-width="2" d="M364.05234375,70C434.77968749999997,52.5,505.50703125,35,576.234375,35C652.7135416666666,35,729.1927083333334,35,805.671875,35"></path><text _ngcontent-c4="" class="edge-label" style="fill: #535c68;" text-anchor="start"><textPath _ngcontent-c4="" startOffset="10%" style="fill: #373d3f; font-size:10;" href="#ahuhx"> &lt;fonte de dados&gt; </textPath></text></g><!----><!----></g><g class="link-group ng-tns-c8-11 ng-star-inserted" id="aqtjw" style=""><!----><!----><g _ngcontent-c4="" class="edge ng-star-inserted"><path _ngcontent-c4="" class="line" marker-end="url(#arrow)" stroke="#535c68" stroke-width="2" d="M364.05234375,100C434.77968749999997,117.5,505.50703125,135,576.234375,135C630.2265625,135,684.21875,135,738.2109375,135"></path><text _ngcontent-c4="" class="edge-label" style="fill: #535c68;" text-anchor="start"><textPath _ngcontent-c4="" startOffset="10%" style="fill: #373d3f; font-size:10;" href="#aqtjw">  </textPath></text></g><!----><!----></g><g class="link-group ng-tns-c8-11 ng-star-inserted" id="adyzz" style=""><!----><!----><g _ngcontent-c4="" class="edge ng-star-inserted"><path _ngcontent-c4="" class="line" marker-end="url(#arrow)" stroke="#535c68" stroke-width="2" d="M1252.1171875,135C1306.109375,135,1360.1015625,135,1414.09375,135C1430.7604166666667,135,1447.4270833333333,135,1464.09375,135"></path><text _ngcontent-c4="" class="edge-label" style="fill: #535c68;" text-anchor="start"><textPath _ngcontent-c4="" startOffset="10%" style="fill: #373d3f; font-size:10;" href="#adyzz"> caso não seja pertinente </textPath></text></g><!----><!----></g><g class="link-group ng-tns-c8-11 ng-star-inserted" id="aww4v" style=""><!----><!----><g _ngcontent-c4="" class="edge ng-star-inserted"><path _ngcontent-c4="" class="line" marker-end="url(#arrow)" stroke="#535c68" stroke-width="2" d="M364.05234375,270C434.77968749999997,252.5,505.50703125,235,576.234375,235C671.3932291666666,235,766.5520833333334,235,861.7109375,235"></path><text _ngcontent-c4="" class="edge-label" style="fill: #535c68;" text-anchor="start"><textPath _ngcontent-c4="" startOffset="10%" style="fill: #373d3f; font-size:10;" href="#aww4v"> caso a feature seja muito enviesada </textPath></text></g><!----><!----></g><g class="link-group ng-tns-c8-11 ng-star-inserted" id="a40ly" style=""><!----><!----><g _ngcontent-c4="" class="edge ng-star-inserted"><path _ngcontent-c4="" class="line" marker-end="url(#arrow)" stroke="#535c68" stroke-width="2" d="M364.05234375,300C434.77968749999997,317.5,505.50703125,335,576.234375,335C672.921875,335,769.609375,335,866.296875,335"></path><text _ngcontent-c4="" class="edge-label" style="fill: #535c68;" text-anchor="start"><textPath _ngcontent-c4="" startOffset="10%" style="fill: #373d3f; font-size:10;" href="#a40ly">  </textPath></text></g><!----><!----></g><g class="link-group ng-tns-c8-11 ng-star-inserted" id="atqnn" style=""><!----><!----><g _ngcontent-c4="" class="edge ng-star-inserted"><path _ngcontent-c4="" class="line" marker-end="url(#arrow)" stroke="#535c68" stroke-width="2" d="M389.375,465C451.6614583333333,465,513.9479166666666,465,576.234375,465C592.9010416666666,465,609.5677083333334,465,626.234375,465"></path><text _ngcontent-c4="" class="edge-label" style="fill: #535c68;" text-anchor="start"><textPath _ngcontent-c4="" startOffset="10%" style="fill: #373d3f; font-size:10;" href="#atqnn">  </textPath></text></g><!----><!----></g><g class="link-group ng-tns-c8-11 ng-star-inserted" id="apcxi" style=""><!----><!----><g _ngcontent-c4="" class="edge ng-star-inserted"><path _ngcontent-c4="" class="line" marker-end="url(#arrow)" stroke="#535c68" stroke-width="2" d="M1043.5021033653845,450C1167.0326522435896,392.5,1290.563201121795,335,1414.09375,335C1441.171875,335,1468.25,335,1495.328125,335"></path><text _ngcontent-c4="" class="edge-label" style="fill: #535c68;" text-anchor="start"><textPath _ngcontent-c4="" startOffset="10%" style="fill: #373d3f; font-size:10;" href="#apcxi">  </textPath></text></g><!----><!----></g><g class="link-group ng-tns-c8-11 ng-star-inserted" id="aj78d" style=""><!----><!----><g _ngcontent-c4="" class="edge ng-star-inserted"><path _ngcontent-c4="" class="line" marker-end="url(#arrow)" stroke="#535c68" stroke-width="2" d="M1120.84296875,480C1218.5932291666666,497.5,1316.3434895833334,515,1414.09375,515C1448.8359375,515,1483.578125,515,1518.3203125,515"></path><text _ngcontent-c4="" class="edge-label" style="fill: #535c68;" text-anchor="start"><textPath _ngcontent-c4="" startOffset="10%" style="fill: #373d3f; font-size:10;" href="#aj78d">  </textPath></text></g><!----><!----></g></g><g class="nodes"><!----><g class="node-group ng-tns-c8-11 ng-star-inserted" id="7d99dc07-522a-4055-8587-6f629f81c08a" transform="translate(128.109375, 70)"><!----><!----><g _ngcontent-c4="" class="node ng-star-inserted"><rect _ngcontent-c4="" rx="15" ry="15" width="290.015625" height="30" fill="#c7ecee"></rect><text _ngcontent-c4="" alignment-baseline="central" style="fill: #373d3f;" x="10" y="15"> Obter os dados e inserir no programa</text></g><!----><!----></g><g class="node-group ng-tns-c8-11 ng-star-inserted" id="8d5c8894-de20-4837-a1d0-75e6e545681b" transform="translate(805.671875, 20)"><!----><!----><g _ngcontent-c4="" class="node ng-star-inserted"><rect _ngcontent-c4="" rx="15" ry="15" width="378.984375" height="30" fill="#c7ecee"></rect><text _ngcontent-c4="" alignment-baseline="central" style="fill: #373d3f;" x="10" y="15"> Leitura de dados com o comando `data = pd.read`</text></g><!----><!----></g><g class="node-group ng-tns-c8-11 ng-star-inserted" id="e0d12f85-3db8-41dd-8a70-e099104d8acf" transform="translate(738.2109375, 120)"><!----><!----><g _ngcontent-c4="" class="node ng-star-inserted"><rect _ngcontent-c4="" rx="15" ry="15" width="513.90625" height="30" fill="#c7ecee"></rect><text _ngcontent-c4="" alignment-baseline="central" style="fill: #373d3f;" x="10" y="15"> Avaliar as colunas e ver se todas parecem pertinentes para a solução</text></g><!----><!----></g><g class="node-group ng-tns-c8-11 ng-star-inserted" id="9029725f-5399-4a99-8a2b-2d4ac4128d48" transform="translate(1464.09375, 120)"><!----><!----><g _ngcontent-c4="" class="node ng-star-inserted"><rect _ngcontent-c4="" rx="15" ry="15" width="244.625" height="30" fill="#eb4d4b"></rect><text _ngcontent-c4="" alignment-baseline="central" style="fill: #373d3f;" x="10" y="15"> Remover do conjunto de dados  </text></g><!----><!----></g><g class="node-group ng-tns-c8-11 ng-star-inserted" id="3c390cd4-2954-4772-abc6-db93deb57d7b" transform="translate(162.0234375, 270)"><!----><!----><g _ngcontent-c4="" class="node ng-star-inserted"><rect _ngcontent-c4="" rx="15" ry="15" width="222.1875" height="30" fill="#c7ecee"></rect><text _ngcontent-c4="" alignment-baseline="central" style="fill: #373d3f;" x="10" y="15"> Analisar features numéricas</text></g><!----><!----></g><g class="node-group ng-tns-c8-11 ng-star-inserted" id="fb657745-ce78-435a-b724-65de9dda9676" transform="translate(861.7109375, 220)"><!----><!----><g _ngcontent-c4="" class="node ng-star-inserted"><rect _ngcontent-c4="" rx="15" ry="15" width="266.90625" height="30" fill="#f6e58d"></rect><text _ngcontent-c4="" alignment-baseline="central" style="fill: #373d3f;" x="10" y="15"> Aplicar transformação logarítmica </text></g><!----><!----></g><g class="node-group ng-tns-c8-11 ng-star-inserted" id="2533dd4d-d1a1-41c4-8498-37df0428af98" transform="translate(866.296875, 320)"><!----><!----><g _ngcontent-c4="" class="node ng-star-inserted"><rect _ngcontent-c4="" rx="15" ry="15" width="257.734375" height="30" fill="#c7ecee"></rect><text _ngcontent-c4="" alignment-baseline="central" style="fill: #373d3f;" x="10" y="15"> Normalizar os valores entre 0 e 1</text></g><!----><!----></g><g class="node-group ng-tns-c8-11 ng-star-inserted" id="820861c8-7832-497e-a2d5-ba662154a03a" transform="translate(20, 370)"><!----><!----><g _ngcontent-c4="" class="node ng-star-inserted"><rect _ngcontent-c4="" rx="15" ry="15" width="506.234375" height="30" fill="#c7ecee"></rect><text _ngcontent-c4="" alignment-baseline="central" style="fill: #373d3f;" x="10" y="15"> One-hot encode variáveis categóricas  com `pandas.get_dummies()`</text></g><!----><!----></g><g class="node-group ng-tns-c8-11 ng-star-inserted" id="d47f3ccc-fbe5-4a9b-944b-ad0e0a04ee79" transform="translate(156.859375, 450)"><!----><!----><g _ngcontent-c4="" class="node ng-star-inserted"><rect _ngcontent-c4="" rx="15" ry="15" width="232.515625" height="30" fill="#c7ecee"></rect><text _ngcontent-c4="" alignment-baseline="central" style="fill: #373d3f;" x="10" y="15"> Embaralhar e dividir os dados</text></g><!----><!----></g><g class="node-group ng-tns-c8-11 ng-star-inserted" id="65d606d2-fe00-4ae2-87f4-af85213b8090" transform="translate(626.234375, 450)"><!----><!----><g _ngcontent-c4="" class="node ng-star-inserted"><rect _ngcontent-c4="" rx="15" ry="15" width="737.859375" height="30" fill="#c7ecee"></rect><text _ngcontent-c4="" alignment-baseline="central" style="fill: #373d3f;" x="10" y="15"> Este passo é realizado para que tenhamos dados de treinamento e dados de teste do nosso modelo</text></g><!----><!----></g><g class="node-group ng-tns-c8-11 ng-star-inserted" id="eb2b31ce-5f5a-4eec-8e62-c8a7be1ec605" transform="translate(1495.328125, 320)"><!----><!----><g _ngcontent-c4="" class="node ng-star-inserted"><rect _ngcontent-c4="" rx="15" ry="15" width="182.15625" height="30" fill="#c7ecee"></rect><text _ngcontent-c4="" alignment-baseline="central" style="fill: #373d3f;" x="10" y="15"> 80% para treinamento</text></g><!----><!----></g><g class="node-group ng-tns-c8-11 ng-star-inserted" id="a8e529d6-f9a1-46bc-a52a-14ffd41212f5" transform="translate(1518.3203125, 500)"><!----><!----><g _ngcontent-c4="" class="node ng-star-inserted"><rect _ngcontent-c4="" rx="15" ry="15" width="136.171875" height="30" fill="#c7ecee"></rect><text _ngcontent-c4="" alignment-baseline="central" style="fill: #373d3f;" x="10" y="15"> 20% para testes</text></g><!----><!----></g></g></g></svg>